<svg width="1024" height="1024" xmlns="http://www.w3.org/2000/svg" xmlns:svg="http://www.w3.org/2000/svg">
 <g display="none">
  <title>Layer 9</title>
  <rect fill="#000000" stroke="#000000" stroke-width="0" stroke-dasharray="null" stroke-linejoin="null" stroke-linecap="round" opacity="0.65" x="0" y="0" width="1024" height="1024" id="svg_64"/>
 </g>
 <g>
  <title>Layer 1</title>
  <g id="svg_9" stroke="null">
   <polygon fill="#ffffff" points="717.277587890625,501.3659973144531 854.3189697265625,638.4149780273438 752.1734008789062,638.4593505859375 680.2913818359375,566.5772705078125 " id="svg_1" stroke="null"/>
   <polygon fill="#ffffff" points="697.227783203125,519.540283203125 674.0652465820312,560.3511962890625 665.2523193359375,551.5233154296875 " id="svg_2" stroke="null"/>
   <polygon fill="#ffffff" points="511.99322509765625,448.4883728027344 449.7763366699219,558.194091796875 426.0354919433594,534.4461059570312 " id="svg_3" stroke="null"/>
   <polygon fill="#ffffff" points="350.1509704589844,508.80047607421875 237.102294921875,708.162353515625 167.68099975585938,691.270263671875 " id="svg_4" stroke="null"/>
   <polygon points="246.48599243164062,708.7849731445312 370.2155456542969,490.61865234375 588.2334594726562,708.62939453125 " id="svg_5" fill="#ffffff"/>
   <polygon fill="#ffffff" points="456.002685546875,564.405517578125 532.042724609375,430.3140563964844 780.4578857421875,678.7291870117188 570.429931640625,678.8330078125 " id="svg_6" stroke="null"/>
  </g>
 </g>
 <g>
  <title>Layer 2</title>
  <g id="svg_35" opacity="0.4" stroke="null">
   <path id="svg_40" d="m696.63013,142.17787c-6.10399,-3.52395 -10.09204,-2.45418 -13.61403,3.64784l-6.49139,-24.22325c6.10399,3.52395 10.09204,2.45615 13.616,-3.64588l6.48942,24.22129z" fill="#ffffff" stroke="null"/>
   <path id="svg_41" d="m720.85339,117.95462c3.52395,6.10399 7.512,7.1718 13.616,3.64588l-6.48942,24.22325c-3.52395,-6.10399 -7.512,-7.1718 -13.61796,-3.64784l6.49139,-24.22129l0,0l0,0l-0.00001,0z" fill="#ffffff" stroke="null"/>
   <path id="svg_42" d="m667.6578,154.69066c-7.04791,0 -9.96815,2.91827 -9.96815,9.96815l-17.73186,-17.73383c7.04791,0 9.96815,-2.91827 9.96815,-9.96815l17.73186,17.73383z" fill="#ffffff" stroke="null"/>
   <path id="svg_43" d="m648.8247,180.01515c-6.10399,3.52395 -7.1718,7.512 -3.64784,13.616l-24.21932,-6.48746c6.10399,-3.52395 7.16983,-7.512 3.64588,-13.61796l24.22129,6.48942l0,0l-0.00001,0z" fill="#ffffff" stroke="null"/>
   <path id="svg_44" d="m645.17883,211.36104c-3.52395,6.10399 -2.45615,10.09204 3.64784,13.61796l-24.22129,6.48942c3.52395,-6.10399 2.45615,-10.09204 -3.64784,-13.61796l24.22129,-6.48942z" fill="#ffffff" stroke="null"/>
   <path id="svg_45" d="m657.69358,240.33534c0,7.04791 2.91827,9.96815 9.96618,9.96815l-17.73186,17.73186c0,-7.04791 -2.92024,-9.96618 -9.96815,-9.96618l17.73383,-17.73383l0,0l0,0z" fill="#ffffff" stroke="null"/>
   <path id="svg_46" d="m683.01611,259.16844c3.52395,6.10399 7.512,7.16983 13.616,3.64588l-6.48942,24.22129c-3.52395,-6.10203 -7.512,-7.16983 -13.61403,-3.64588l6.48746,-24.22129l0,0l-0.00001,0z" fill="#ffffff" stroke="null"/>
   <path id="svg_47" d="m714.36593,262.81432c6.10399,3.52395 10.09204,2.45615 13.616,-3.64588l6.48746,24.22325c-6.10399,-3.52395 -10.09204,-2.45615 -13.616,3.64588l-6.48746,-24.22325z" fill="#ffffff" stroke="null"/>
   <path id="svg_48" d="m743.33629,250.3035c7.04791,-0.00197 9.96618,-2.92024 9.96618,-9.96815l17.7358,17.73186c-7.04791,0 -9.96618,2.91827 -9.96618,9.96618l-17.7358,-17.7299l0,0l0,0.00001z" fill="#ffffff" stroke="null"/>
   <path id="svg_49" d="m762.16939,224.97507c6.10399,-3.52199 7.1718,-7.51004 3.64784,-13.61403l24.22129,6.49336c-6.10399,3.52199 -7.16983,7.51004 -3.64784,13.61403l-24.22129,-6.49336z" fill="#ffffff" stroke="null"/>
   <path id="svg_50" d="m765.81723,193.62918c3.52395,-6.10399 2.45615,-10.09007 -3.64588,-13.61206l24.22325,-6.49139c-3.52395,6.10399 -2.45418,10.09007 3.64588,13.61403l-24.22325,6.48942l0,0z" fill="#ffffff" stroke="null"/>
   <path id="svg_51" d="m753.30248,164.65685c0,-7.04791 -2.91827,-9.96618 -9.96618,-9.96618l17.73383,-17.73383c0,7.04791 2.91827,9.96618 9.96618,9.96618l-17.73383,17.73383z" fill="#ffffff" stroke="null"/>
   <path id="svg_52" d="m639.95975,222.60348c-9.79313,0 -17.73383,7.93873 -17.73383,17.73186c0,9.79313 7.93873,17.73383 17.73383,17.73383s17.73383,-7.93873 17.73383,-17.73383c0,-9.79313 -7.93873,-17.73186 -17.73383,-17.73186zm0,23.51532c-3.19555,0 -5.78346,-2.58987 -5.78346,-5.78346s2.5879,-5.78346 5.78346,-5.78346c3.19358,0 5.78346,2.58987 5.78346,5.78346s-2.5879,5.78346 -5.78346,5.78346z" fill="#ffffff" stroke="null"/>
   <path id="svg_53" d="m667.65977,250.3035c-9.79117,0 -17.73186,7.93873 -17.73186,17.73186c0,9.79313 7.93873,17.73383 17.73186,17.73383c9.79313,0 17.73383,-7.93873 17.73383,-17.73383c0,-9.79313 -7.93873,-17.73186 -17.73383,-17.73186zm0,23.51532c-3.19358,0 -5.78346,-2.5879 -5.78346,-5.78346c0,-3.19358 2.58987,-5.78149 5.78346,-5.78149c3.19555,0 5.78346,2.5879 5.78346,5.78149c0.00197,3.19555 -2.5879,5.78346 -5.78346,5.78346z" fill="#ffffff" stroke="null"/>
   <path id="svg_54" d="m705.49901,260.43879c-9.79117,0 -17.73186,7.93873 -17.73186,17.73186c0,9.79313 7.93873,17.73383 17.73186,17.73383c9.79313,0 17.73383,-7.93873 17.73383,-17.73383c-0.00197,-9.79117 -7.9407,-17.73186 -17.73383,-17.73186zm0,23.51532c-3.19358,0 -5.78149,-2.58987 -5.78149,-5.78346s2.5879,-5.78346 5.78149,-5.78346c3.19555,0 5.78346,2.58987 5.78346,5.78346s-2.5879,5.78346 -5.78346,5.78346z" fill="#ffffff" stroke="null"/>
   <path id="svg_55" d="m743.33826,250.3035c-9.79117,0 -17.73186,7.93873 -17.73186,17.73383c0,9.79117 7.93873,17.73186 17.73186,17.73186c9.79313,0 17.73383,-7.93873 17.73383,-17.73186c-0.00197,-9.7951 -7.9407,-17.73383 -17.73383,-17.73383zm0,23.51728c-3.19358,0 -5.78149,-2.58987 -5.78149,-5.78346c0,-3.19555 2.5879,-5.78346 5.78149,-5.78346c3.19555,0 5.78346,2.5879 5.78346,5.78346c0,3.19358 -2.5879,5.78346 -5.78346,5.78346z" fill="#ffffff" stroke="null"/>
   <path id="svg_56" d="m771.03631,222.59955c-9.79313,0 -17.73383,7.93873 -17.73383,17.73383s7.93873,17.73383 17.73383,17.73383c9.79117,0 17.73186,-7.93873 17.73186,-17.73383s-7.9407,-17.73383 -17.73186,-17.73383zm0,23.51728c-3.19555,0 -5.78346,-2.58987 -5.78346,-5.78346s2.5879,-5.78346 5.78346,-5.78346c3.19358,0 5.78149,2.58987 5.78149,5.78346s-2.5879,5.78346 -5.78149,5.78346z" fill="#ffffff" stroke="null"/>
   <path id="svg_57" d="m781.17554,184.76423c-9.79313,0 -17.73383,7.93873 -17.73383,17.73383c0,9.79117 7.93873,17.73186 17.73383,17.73186s17.73383,-7.93873 17.73383,-17.73186c0,-9.7951 -7.93873,-17.73383 -17.73383,-17.73383zm0,23.51532c-3.19358,0 -5.78346,-2.5879 -5.78346,-5.78149c0,-3.19555 2.58987,-5.78346 5.78346,-5.78346s5.78346,2.5879 5.78346,5.78346c0,3.19358 -2.58987,5.78149 -5.78346,5.78149z" fill="#ffffff" stroke="null"/>
   <path id="svg_58" d="m771.03828,146.92695c-9.79117,0 -17.73186,7.93873 -17.73186,17.73186c0,9.79313 7.93873,17.73383 17.73186,17.73383c9.79313,0 17.73383,-7.93873 17.73383,-17.73383c-0.00197,-9.79313 -7.9407,-17.73186 -17.73383,-17.73186zm0,23.51532c-3.19358,0 -5.78346,-2.5879 -5.78346,-5.78346c0,-3.19358 2.58987,-5.78346 5.78346,-5.78346s5.78346,2.58987 5.78346,5.78346c0,3.19358 -2.58987,5.78346 -5.78346,5.78346z" fill="#ffffff" stroke="null"/>
   <path id="svg_59" d="m743.33629,119.22694c-9.79117,0 -17.73186,7.93873 -17.73186,17.73383c0,9.79117 7.93873,17.73186 17.73186,17.73186c9.79313,0 17.73383,-7.93873 17.73383,-17.73186c-0.00197,-9.7951 -7.9407,-17.73383 -17.73383,-17.73383zm0,23.51532c-3.19358,0 -5.78346,-2.5879 -5.78346,-5.78149c0,-3.19555 2.58987,-5.78346 5.78346,-5.78346c3.19555,0 5.78346,2.5879 5.78346,5.78346c0,3.19358 -2.5879,5.78149 -5.78346,5.78149z" fill="#ffffff" stroke="null"/>
   <path id="svg_60" d="m705.49705,109.08967c-9.79117,0 -17.73186,7.93873 -17.73186,17.73383c0,9.79117 7.93873,17.73186 17.73186,17.73186c9.79313,0 17.73383,-7.93873 17.73383,-17.73186c-0.00197,-9.7951 -7.9407,-17.73383 -17.73383,-17.73383zm0,23.51728c-3.19358,0 -5.78346,-2.58987 -5.78346,-5.78346c0,-3.19555 2.58987,-5.78346 5.78346,-5.78346c3.19555,0 5.78346,2.5879 5.78346,5.78346c0,3.19162 -2.5879,5.78346 -5.78346,5.78346z" fill="#ffffff" stroke="null"/>
   <path id="svg_61" d="m639.95975,146.92695c-9.79313,0 -17.73383,7.93873 -17.73383,17.73383c0,9.79117 7.93873,17.73186 17.73383,17.73186c9.79117,0 17.73186,-7.93873 17.73186,-17.73186c-0.00197,-9.7951 -7.9407,-17.73383 -17.73186,-17.73383zm0,23.51728c-3.19358,0 -5.78346,-2.58987 -5.78346,-5.78346s2.58987,-5.78346 5.78346,-5.78346s5.78346,2.58987 5.78346,5.78346s-2.58987,5.78346 -5.78346,5.78346z" fill="#ffffff" stroke="null"/>
   <path id="svg_62" d="m629.82249,184.76423c-9.79117,0 -17.73186,7.93873 -17.73186,17.73383s7.93873,17.73383 17.73186,17.73383c9.79313,0 17.73383,-7.93873 17.73383,-17.73383s-7.93873,-17.73383 -17.73383,-17.73383zm0,23.51728c-3.19358,0 -5.78346,-2.58987 -5.78346,-5.78346s2.58987,-5.78346 5.78346,-5.78346s5.78346,2.58987 5.78346,5.78346s-2.58987,5.78346 -5.78346,5.78346z" fill="#ffffff" stroke="null"/>
   <path id="svg_63" d="m667.6578,119.22694c-9.79117,0 -17.73186,7.93873 -17.73186,17.73383c0,9.79117 7.93873,17.73186 17.73186,17.73186c9.79313,0 17.73383,-7.93873 17.73383,-17.73186c0,-9.7951 -7.93873,-17.73383 -17.73383,-17.73383zm0,23.51532c-3.19358,0 -5.78346,-2.5879 -5.78346,-5.78149c0,-3.19555 2.58987,-5.78346 5.78346,-5.78346s5.78346,2.5879 5.78346,5.78346c0.00197,3.19358 -2.58987,5.78149 -5.78346,5.78149z" fill="#ffffff" stroke="null"/>
  </g>
 </g>
</svg>