<svg width="1024" height="1024" xmlns="http://www.w3.org/2000/svg" xmlns:svg="http://www.w3.org/2000/svg">
 <g display="none">
  <title>Layer 2</title>
  <g id="svg_26" opacity="0.1">
   <path stroke="null" id="svg_2" d="m467.094,206.61825c-30.90306,-17.84094 -51.09359,-12.42494 -68.92457,18.46816l-32.86437,-122.63655c30.90306,17.84094 51.09359,12.4349 68.93453,-18.45821l32.85441,122.6266z" fill="#000000"/>
   <path stroke="null" id="svg_3" d="m589.73055,83.9817c17.84094,30.90306 38.03147,36.3091 68.93453,18.45821l-32.85441,122.63655c-17.84094,-30.90306 -38.03147,-36.3091 -68.94448,-18.46816l32.86437,-122.6266l-0.00001,0z" fill="#000000"/>
   <path stroke="null" id="svg_4" d="m320.41399,269.96753c-35.68188,0 -50.46637,14.77453 -50.46637,50.46637l-89.77219,-89.78214c35.68188,0 50.46637,-14.77453 50.46637,-50.46637l89.77219,89.78214z" fill="#000000"/>
   <path stroke="null" id="svg_5" d="m225.06651,398.17938c-30.90306,17.84094 -36.3091,38.03147 -18.46816,68.93453l-122.61664,-32.84445c30.90306,-17.84094 36.29915,-38.03147 18.45821,-68.94448l122.6266,32.85441l-0.00001,-0.00001z" fill="#000000"/>
   <path stroke="null" id="svg_6" d="m206.60831,556.87614c-17.84094,30.90306 -12.4349,51.09359 18.46816,68.94448l-122.6266,32.85441c17.84094,-30.90306 12.4349,-51.09359 -18.46816,-68.94448l122.6266,-32.85441z" fill="#000000"/>
   <path stroke="null" id="svg_7" d="m269.96754,703.5661c0,35.68188 14.77453,50.46637 50.45641,50.46637l-89.77219,89.77219c0,-35.68188 -14.78448,-50.45641 -50.46637,-50.45641l89.78214,-89.78214l0.00001,-0.00001z" fill="#000000"/>
   <path stroke="null" id="svg_8" d="m398.16943,798.91358c17.84094,30.90306 38.03147,36.29915 68.93453,18.45821l-32.85441,122.6266c-17.84094,-30.8931 -38.03147,-36.29915 -68.92457,-18.45821l32.84445,-122.6266z" fill="#000000"/>
   <path stroke="null" id="svg_9" d="m556.8861,817.37179c30.90306,17.84094 51.09359,12.4349 68.93453,-18.45821l32.84445,122.63655c-30.90306,-17.84094 -51.09359,-12.4349 -68.93453,18.45821l-32.84445,-122.63655z" fill="#000000"/>
   <path stroke="null" id="svg_10" d="m703.55615,754.03247c35.68188,-0.00996 50.45641,-14.78448 50.45641,-50.46637l89.7921,89.77219c-35.68188,0 -50.45641,14.77453 -50.45641,50.45641l-89.7921,-89.76223z" fill="#000000"/>
   <path stroke="null" id="svg_11" d="m798.90363,625.80071c30.90306,-17.83098 36.3091,-38.02151 18.46816,-68.92457l122.6266,32.87432c-30.90306,17.83098 -36.29915,38.02151 -18.46816,68.92457l-122.6266,-32.87432z" fill="#000000"/>
   <path stroke="null" id="svg_12" d="m817.37179,467.10395c17.84094,-30.90306 12.4349,-51.08363 -18.45821,-68.91461l122.63655,-32.86437c-17.84094,30.90306 -12.42494,51.08363 18.45821,68.92457l-122.63655,32.85441z" fill="#000000"/>
   <path stroke="null" id="svg_13" d="m754.01256,320.42394c0,-35.68188 -14.77453,-50.45641 -50.45641,-50.45641l89.78214,-89.78214c0,35.68188 14.77453,50.45641 50.45641,50.45641l-89.78214,89.78214z" fill="#000000"/>
   <path stroke="null" id="svg_14" d="m180.18539,613.79391c-49.58029,0 -89.78214,40.1919 -89.78214,89.77219c0,49.58029 40.1919,89.78214 89.78214,89.78214s89.78214,-40.1919 89.78214,-89.78214c0,-49.58029 -40.1919,-89.77219 -89.78214,-89.77219zm0,119.05244c-16.17831,0 -29.28025,-13.1119 -29.28025,-29.28025s13.10194,-29.28025 29.28025,-29.28025c16.16835,0 29.28025,13.1119 29.28025,29.28025s-13.10194,29.28025 -29.28025,29.28025z" fill="#000000"/>
   <path stroke="null" id="svg_15" d="m320.42395,754.03247c-49.57034,0 -89.77219,40.1919 -89.77219,89.77219c0,49.58029 40.1919,89.78214 89.77219,89.78214c49.58029,0 89.78214,-40.1919 89.78214,-89.78214c0,-49.58029 -40.1919,-89.77219 -89.78214,-89.77219zm0,119.05244c-16.16835,0 -29.28025,-13.10194 -29.28025,-29.28025c0,-16.16835 13.1119,-29.27029 29.28025,-29.27029c16.17831,0 29.28025,13.10194 29.28025,29.27029c0.00996,16.17831 -13.10194,29.28025 -29.28025,29.28025z" fill="#000000"/>
   <path stroke="null" id="svg_16" d="m511.99503,805.34508c-49.57034,0 -89.77219,40.1919 -89.77219,89.77219c0,49.58029 40.1919,89.78214 89.77219,89.78214c49.58029,0 89.78214,-40.1919 89.78214,-89.78214c-0.00996,-49.57034 -40.20185,-89.77219 -89.78214,-89.77219zm0,119.05244c-16.16835,0 -29.27029,-13.1119 -29.27029,-29.28025s13.10194,-29.28025 29.27029,-29.28025c16.17831,0 29.28025,13.1119 29.28025,29.28025s-13.10194,29.28025 -29.28025,29.28025z" fill="#000000"/>
   <path stroke="null" id="svg_17" d="m703.56611,754.03247c-49.57034,0 -89.77219,40.1919 -89.77219,89.78214c0,49.57034 40.1919,89.77219 89.77219,89.77219c49.58029,0 89.78214,-40.1919 89.78214,-89.77219c-0.00996,-49.59025 -40.20185,-89.78214 -89.78214,-89.78214zm0,119.06239c-16.16835,0 -29.27029,-13.1119 -29.27029,-29.28025c0,-16.17831 13.10194,-29.28025 29.27029,-29.28025c16.17831,0 29.28025,13.10194 29.28025,29.28025c0,16.16835 -13.10194,29.28025 -29.28025,29.28025z" fill="#000000"/>
   <path stroke="null" id="svg_18" d="m843.7947,613.774c-49.58029,0 -89.78214,40.1919 -89.78214,89.78214s40.1919,89.78214 89.78214,89.78214c49.57034,0 89.77219,-40.1919 89.77219,-89.78214s-40.20185,-89.78214 -89.77219,-89.78214zm0,119.06239c-16.17831,0 -29.28025,-13.1119 -29.28025,-29.28025s13.10194,-29.28025 29.28025,-29.28025c16.16835,0 29.27029,13.1119 29.27029,29.28025s-13.10194,29.28025 -29.27029,29.28025z" fill="#000000"/>
   <path stroke="null" id="svg_19" d="m895.12723,422.22283c-49.58029,0 -89.78214,40.1919 -89.78214,89.78214c0,49.57034 40.1919,89.77219 89.78214,89.77219s89.78214,-40.1919 89.78214,-89.77219c0,-49.59025 -40.1919,-89.78214 -89.78214,-89.78214zm0,119.05244c-16.16835,0 -29.28025,-13.10194 -29.28025,-29.27029c0,-16.17831 13.1119,-29.28025 29.28025,-29.28025s29.28025,13.10194 29.28025,29.28025c0,16.16835 -13.1119,29.27029 -29.28025,29.27029z" fill="#000000"/>
   <path stroke="null" id="svg_20" d="m843.80466,230.66171c-49.57034,0 -89.77219,40.1919 -89.77219,89.77219c0,49.58029 40.1919,89.78214 89.77219,89.78214c49.58029,0 89.78214,-40.1919 89.78214,-89.78214c-0.00996,-49.58029 -40.20185,-89.77219 -89.78214,-89.77219zm0,119.05244c-16.16835,0 -29.28025,-13.10194 -29.28025,-29.28025c0,-16.16835 13.1119,-29.28025 29.28025,-29.28025s29.28025,13.1119 29.28025,29.28025c0,16.16835 -13.1119,29.28025 -29.28025,29.28025z" fill="#000000"/>
   <path stroke="null" id="svg_21" d="m703.55615,90.42316c-49.57034,0 -89.77219,40.1919 -89.77219,89.78214c0,49.57034 40.1919,89.77219 89.77219,89.77219c49.58029,0 89.78214,-40.1919 89.78214,-89.77219c-0.00996,-49.59025 -40.20185,-89.78214 -89.78214,-89.78214zm0,119.05244c-16.16835,0 -29.28025,-13.10194 -29.28025,-29.27029c0,-16.17831 13.1119,-29.28025 29.28025,-29.28025c16.17831,0 29.28025,13.10194 29.28025,29.28025c0,16.16835 -13.10194,29.27029 -29.28025,29.27029z" fill="#000000"/>
   <path stroke="null" id="svg_22" d="m511.98507,39.10059c-49.57034,0 -89.77219,40.1919 -89.77219,89.78214c0,49.57034 40.1919,89.77219 89.77219,89.77219c49.58029,0 89.78214,-40.1919 89.78214,-89.77219c-0.00996,-49.59025 -40.20185,-89.78214 -89.78214,-89.78214zm0,119.06239c-16.16835,0 -29.28025,-13.1119 -29.28025,-29.28025c0,-16.17831 13.1119,-29.28025 29.28025,-29.28025c16.17831,0 29.28025,13.10194 29.28025,29.28025c0,16.1584 -13.10194,29.28025 -29.28025,29.28025z" fill="#000000"/>
   <path stroke="null" id="svg_23" d="m180.18539,230.66171c-49.58029,0 -89.78214,40.1919 -89.78214,89.78214c0,49.57034 40.1919,89.77219 89.78214,89.77219c49.57034,0 89.77219,-40.1919 89.77219,-89.77219c-0.00996,-49.59025 -40.20185,-89.78214 -89.77219,-89.78214zm0,119.06239c-16.16835,0 -29.28025,-13.1119 -29.28025,-29.28025s13.1119,-29.28025 29.28025,-29.28025s29.28025,13.1119 29.28025,29.28025s-13.1119,29.28025 -29.28025,29.28025z" fill="#000000"/>
   <path stroke="null" id="svg_24" d="m128.86282,422.22283c-49.57034,0 -89.77219,40.1919 -89.77219,89.78214s40.1919,89.78214 89.77219,89.78214c49.58029,0 89.78214,-40.1919 89.78214,-89.78214s-40.1919,-89.78214 -89.78214,-89.78214zm0,119.06239c-16.16835,0 -29.28025,-13.1119 -29.28025,-29.28025s13.1119,-29.28025 29.28025,-29.28025s29.28025,13.1119 29.28025,29.28025s-13.1119,29.28025 -29.28025,29.28025z" fill="#000000"/>
   <path stroke="null" id="svg_25" d="m320.41399,90.42316c-49.57034,0 -89.77219,40.1919 -89.77219,89.78214c0,49.57034 40.1919,89.77219 89.77219,89.77219c49.58029,0 89.78214,-40.1919 89.78214,-89.77219c0,-49.59025 -40.1919,-89.78214 -89.78214,-89.78214zm0,119.05244c-16.16835,0 -29.28025,-13.10194 -29.28025,-29.27029c0,-16.17831 13.1119,-29.28025 29.28025,-29.28025s29.28025,13.10194 29.28025,29.28025c0.00996,16.16835 -13.1119,29.27029 -29.28025,29.27029z" fill="#000000"/>
  </g>
 </g>
 <g display="none">
  <title>Layer 3</title>
  <path d="m766.79012,512c0,-67.94403 -26.32831,-131.64157 -74.73844,-180.05169c-48.41012,-48.41012 -112.10766,-74.73844 -180.05169,-74.73844s-131.64157,26.32831 -180.05169,74.73844c-48.41012,48.41012 -74.73844,112.10766 -74.73844,180.05169c0,2.5479 0,5.0958 0,7.6437c0,0.8493 0,0.8493 0,1.6986c0,0.8493 0,1.6986 0,2.5479c2.5479,63.69753 28.87621,123.14856 74.73844,169.01079c48.41012,47.56082 112.10766,73.88914 180.05169,73.88914s131.64157,-26.32831 180.05169,-74.73844c45.01292,-45.01292 71.34124,-105.31325 74.73844,-169.01079c0,-0.8493 0,-1.6986 0,-2.5479c0,-0.8493 0,-0.8493 0,-1.6986c0,-1.6986 0,-4.2465 0,-6.7944zm-276.87194,-232.70832c-8.493,12.73951 -21.23251,31.42412 -33.12272,55.20453c-6.7944,12.73951 -14.43811,28.87621 -20.38321,45.86222c-20.38321,-5.0958 -39.91712,-11.89021 -56.90313,-18.68461c27.17761,-44.16362 66.24543,-74.73844 110.40906,-82.38214zm-79.83424,231.85902l-71.34124,0c0,-48.41012 11.04091,-94.27235 30.57482,-131.64157c17.83531,7.6437 38.21852,14.43811 60.30033,20.38321c-11.04091,32.27342 -19.53391,70.49194 -19.53391,111.25836zm19.53391,112.95696c-22.08181,5.0958 -42.46502,12.73951 -60.30033,20.38321c-16.98601,-33.12272 -27.17761,-71.34124 -29.72552,-112.95696l71.34124,0c1.6986,33.12272 9.3423,65.39613 18.68461,92.57375zm-34.82132,-315.09046c-6.7944,7.6437 -14.43811,15.28741 -20.38321,23.78041c-5.0958,6.7944 -9.3423,13.58881 -13.58881,20.38321c-5.0958,-2.5479 -9.3423,-4.2465 -14.43811,-6.7944c14.43811,-14.43811 30.57482,-27.17761 48.41012,-37.36922l0.00001,0zm-62.84823,52.65663c0.8493,0 1.6986,0.8493 2.5479,0.8493c5.0958,2.5479 10.19161,5.0958 16.13671,7.6437c-20.38321,40.76642 -32.27342,89.17655 -32.27342,140.13457l-40.76642,0c0,-56.05383 20.38321,-107.86115 54.35523,-148.62758l0,0.00001zm0,300.65235c-29.72552,-35.67062 -49.25942,-81.53284 -53.50593,-130.79227l40.76642,0c2.5479,44.16362 13.58881,85.77934 31.42412,121.44996c-5.9451,2.5479 -11.04091,5.0958 -16.13671,7.6437c-0.8493,0.8493 -1.6986,0.8493 -2.5479,1.6986l0,0.00001zm14.43811,15.28741c4.2465,-2.5479 9.3423,-4.2465 14.43811,-6.7944c4.2465,6.7944 8.493,13.58881 13.58881,20.38321c6.7944,8.493 13.58881,16.13671 20.38321,23.78041c-17.83531,-10.19161 -33.97202,-22.93111 -48.41012,-37.36922l-0.00001,0zm33.12272,-15.28741c16.98601,-6.7944 36.51992,-13.58881 56.90313,-18.68461c6.7944,16.98601 13.58881,33.12272 20.38321,45.86222c11.89021,23.78041 24.62971,42.46502 33.12272,55.20453c-44.16362,-7.6437 -83.23144,-38.21852 -110.40906,-82.38214zm122.29926,62.84823c-7.6437,-11.89021 -16.98601,-27.17761 -27.17761,-45.86222c-5.9451,-11.89021 -12.73951,-25.47901 -18.68461,-39.91712c14.43811,-2.5479 29.72552,-4.2465 45.01292,-5.0958l0,90.87515l0.8493,0l0,-0.00001zm0,-111.25836c-17.83531,0.8493 -35.67062,2.5479 -52.65663,5.9451c-9.3423,-26.32831 -16.13671,-56.90313 -18.68461,-88.32724l70.49194,0l0,82.38214l0.8493,0zm0,-102.76535l-71.34124,0c0,-39.06782 8.493,-75.58774 18.68461,-107.01185c16.98601,3.3972 33.97202,5.0958 52.65663,5.9451l0,101.06675zm0,-121.44996c-15.28741,-0.8493 -30.57482,-2.5479 -45.01292,-5.0958c5.9451,-15.28741 12.73951,-28.87621 18.68461,-39.91712c9.3423,-18.68461 18.68461,-33.97202 27.17761,-45.86222l0,90.87515l-0.8493,0l0,-0.00001zm175.80519,-43.31432c-4.2465,2.5479 -9.3423,4.2465 -14.43811,6.7944c-4.2465,-6.7944 -8.493,-13.58881 -13.58881,-20.38321c-6.7944,-8.493 -13.58881,-16.13671 -20.38321,-23.78041c17.83531,10.19161 33.97202,22.93111 48.41012,37.36922l0.00001,0zm-63.69753,164.76428c0,-40.76642 -8.493,-78.98494 -19.53391,-111.25836c22.08181,-5.0958 42.46502,-12.73951 60.30033,-20.38321c18.68461,37.36922 30.57482,83.23144 30.57482,131.64157l-71.34124,0zm70.49194,20.38321c-2.5479,41.61572 -13.58881,80.68354 -29.72552,112.95696c-17.83531,-7.6437 -38.21852,-14.43811 -60.30033,-20.38321c9.3423,-28.02691 16.98601,-59.45103 18.68461,-93.42305l71.34124,0l0,0.8493zm-39.91712,-169.86009c-17.83531,7.6437 -36.51992,13.58881 -56.90313,18.68461c-6.7944,-16.98601 -13.58881,-33.12272 -20.38321,-45.86222c-11.89021,-23.78041 -24.62971,-42.46502 -33.12272,-55.20453c44.16362,7.6437 83.23144,38.21852 110.40906,82.38214zm-122.29926,-62.84823c7.6437,11.89021 16.98601,27.17761 27.17761,45.86222c5.9451,11.89021 12.73951,25.47901 18.68461,39.91712c-14.43811,2.5479 -29.72552,4.2465 -45.01292,5.0958l0,-90.87515l-0.8493,0l0,0.00001zm0,111.25836c17.83531,-0.8493 35.67062,-2.5479 52.65663,-5.9451c11.04091,31.42412 18.68461,67.94403 18.68461,107.01185l-71.34124,0l0,-101.06675zm0,121.44996l70.49194,0c-2.5479,32.27342 -9.3423,61.99893 -18.68461,88.32724c-16.98601,-3.3972 -33.97202,-5.0958 -52.65663,-5.9451l0,-82.38214l0.8493,0zm0,102.76535c15.28741,0.8493 30.57482,2.5479 45.01292,5.0958c-5.9451,15.28741 -12.73951,28.87621 -18.68461,39.91712c-9.3423,18.68461 -18.68461,33.97202 -27.17761,45.86222l0,-90.87515l0.8493,0l0,0.00001zm11.89021,110.40906c8.493,-12.73951 21.23251,-31.42412 33.12272,-55.20453c6.7944,-12.73951 14.43811,-28.87621 20.38321,-45.86222c20.38321,5.0958 39.91712,11.89021 56.90313,18.68461c-27.17761,44.16362 -66.24543,74.73844 -110.40906,82.38214zm95.12165,-29.72552c6.7944,-7.6437 14.43811,-15.28741 20.38321,-23.78041c5.0958,-6.7944 9.3423,-13.58881 13.58881,-20.38321c5.0958,2.5479 9.3423,4.2465 14.43811,6.7944c-14.43811,14.43811 -30.57482,27.17761 -48.41012,37.36922l-0.00001,0zm62.84823,-52.65663c-0.8493,0 -1.6986,-0.8493 -2.5479,-0.8493c-5.0958,-2.5479 -10.19161,-5.0958 -16.13671,-7.6437c17.83531,-36.51992 28.87621,-78.13564 31.42412,-121.44996l40.76642,0c-4.2465,48.41012 -23.78041,93.42305 -53.50593,129.94297l0,-0.00001zm13.58881,-151.17548c0,-50.10873 -11.04091,-98.51885 -32.27342,-140.13457c5.9451,-2.5479 11.04091,-5.0958 16.13671,-7.6437c0.8493,0 1.6986,-0.8493 2.5479,-0.8493c33.97202,40.76642 54.35523,92.57375 54.35523,149.47688l-40.76642,0l0,-0.8493l0,-0.00001z" id="svg_1" fill="black"/>
 </g>
 <g display="inline">
  <title>Layer 4</title>
  <path fill="#000000" stroke="#000000" stroke-width="64" stroke-dasharray="null" stroke-linejoin="null" stroke-linecap="round" opacity="0.7" d="m317.8332,978.66665c0,-214.54892 173.78463,-388.33355 388.33355,-388.33355" fill-opacity="0" id="svg_29" transform="rotate(45 511.999969482422,784.4998779296876) "/>
  <path fill="#000000" stroke="#000000" stroke-width="64" stroke-dasharray="null" stroke-linejoin="null" stroke-linecap="round" opacity="0.7" d="m317.83325,432.83329c0,-214.54892 173.78463,-388.33355 388.33355,-388.33355" fill-opacity="0" id="svg_30" transform="rotate(-135 512,238.66651916503906) "/>
  <line fill="none" stroke="#000000" stroke-width="64" stroke-dasharray="null" stroke-linejoin="null" stroke-linecap="round" fill-opacity="0" opacity="0.7" x1="125.40131" y1="511.99997" x2="898.59871" y2="511.99997" id="svg_31"/>
  <line fill="none" stroke="#000000" stroke-width="64" stroke-dasharray="null" stroke-linejoin="null" stroke-linecap="round" fill-opacity="0" opacity="0.7" x1="125.40131" y1="511.99999" x2="898.59871" y2="511.99999" id="svg_33" transform="rotate(90 511.99999999999994,512.0000000000001) "/>
 </g>
 <g display="none">
  <title>Layer 5</title>
  <circle fill="#000000" stroke="null" stroke-width="null" stroke-dasharray="null" stroke-linejoin="null" stroke-linecap="null" opacity="0.1" cx="511.99999" cy="511.99999" r="388.33356" id="svg_27"/>
 </g>
 <g display="none">
  <title>Layer 6</title>
 </g>
 <g display="none">
  <title>Layer 7</title>
  <path stroke="#191919" id="svg_32" fill-opacity="0" fill="#000000" stroke-width="20" stroke-dasharray="null" stroke-linejoin="null" stroke-linecap="null" opacity="0.1" d="m499.28397,123.66644c-202.77589,0 -367.02435,173.78463 -367.02435,388.33356c0,214.54893 164.24846,388.33356 367.02435,388.33356"/>
  <path id="svg_28" fill-opacity="0" fill="#000000" stroke="#191919" stroke-width="20" stroke-dasharray="null" stroke-linejoin="null" stroke-linecap="null" opacity="0.1" d="m505.605,125.16952c214.54893,0 388.33356,173.78463 388.33356,388.33356c0,214.54893 -173.78463,388.33356 -388.33356,388.33356"/>
 </g>
 <g display="none">
  <title>Layer 8</title>
  <path stroke="#191919" id="svg_37" fill-opacity="0" fill="#000000" stroke-width="20" stroke-dasharray="null" stroke-linejoin="null" stroke-linecap="null" opacity="0.1" d="m524.56795,123.66644c73.11247,0 132.33357,173.78463 132.33357,388.33356c0,214.54893 -59.2211,388.33356 -132.33357,388.33356"/>
  <path stroke="#191919" id="svg_39" fill-opacity="0" fill="#000000" stroke-width="20" stroke-dasharray="null" stroke-linejoin="null" stroke-linecap="null" opacity="0.1" d="m521.40748,123.66644c-155.63045,0 -281.6911,173.78463 -281.6911,388.33356c0,214.54893 126.06066,388.33356 281.6911,388.33356"/>
  <path stroke="#191919" id="svg_36" fill-opacity="0" fill="#000000" stroke-width="20" stroke-dasharray="null" stroke-linejoin="null" stroke-linecap="null" opacity="0.1" d="m518.24697,123.66645c144.70376,0 261.91381,173.78463 261.91381,388.33356c0,214.54893 -117.21005,388.33356 -261.91381,388.33356"/>
  <path stroke="#191919" id="svg_38" fill-opacity="0" fill="#000000" stroke-width="20" stroke-dasharray="null" stroke-linejoin="null" stroke-linecap="null" opacity="0.1" d="m521.40749,123.66645c-87.53143,0 -158.43189,173.78463 -158.43189,388.33356c0,214.54893 70.90046,388.33356 158.43189,388.33356"/>
 </g>
</svg>